<?xml version="1.0" encoding="UTF-8"?>
<svg xmlns="http://www.w3.org/2000/svg" version="1.1" viewBox="0 0 160 50">
  <!-- Generator: Adobe Illustrator 28.7.1, SVG Export Plug-In . SVG Version: 1.2.0 Build 142)  -->
  <g>
    <g id="Calque_1">
      <g id="Calque_1-2" data-name="Calque_1">
        <g id="bars">
          <rect width="2" height="50"/>
          <rect x="8" width="2" height="50"/>
          <rect x="12" width="6" height="50"/>
          <rect x="20" width="6" height="50"/>
          <rect x="28" width="2" height="50"/>
          <rect x="32" width="6" height="50"/>
          <rect x="40" width="2" height="50"/>
          <rect x="48" width="2" height="50"/>
          <rect x="52" width="6" height="50"/>
          <rect x="60" width="2" height="50"/>
          <rect x="64" width="2" height="50"/>
          <rect x="68" width="2" height="50"/>
          <rect x="76" width="2" height="50"/>
          <rect x="80" width="6" height="50"/>
          <rect x="88" width="6" height="50"/>
          <rect x="96" width="2" height="50"/>
          <rect x="100" width="6" height="50"/>
          <rect x="112" width="2" height="50"/>
          <rect x="116" width="2" height="50"/>
          <rect x="120" width="6" height="50"/>
          <rect x="128" width="2" height="50"/>
          <rect x="136" width="2" height="50"/>
          <rect x="140" width="6" height="50"/>
          <rect x="148" width="6" height="50"/>
          <rect x="156" width="2" height="50"/>
        </g>
      </g>
    </g>
  </g>
</svg>