<?xml version="1.0" encoding="UTF-8"?>
<svg id="Calque_1" xmlns="http://www.w3.org/2000/svg" version="1.1" viewBox="0 0 160 50">
  <!-- Generator: Adobe Illustrator 29.1.0, SVG Export Plug-In . SVG Version: 2.1.0 Build 142)  -->
  <defs>
    <style>
      .st0 {
        fill: #fff;
      }
    </style>
  </defs>
  <g id="Calque_11" data-name="Calque_1">
    <g id="Calque_1-2">
      <g id="bars">
        <rect class="st0" y="0" width="2" height="50"/>
        <rect class="st0" x="8" y="0" width="2" height="50"/>
        <rect class="st0" x="12" y="0" width="6" height="50"/>
        <rect class="st0" x="20" y="0" width="6" height="50"/>
        <rect class="st0" x="28" y="0" width="2" height="50"/>
        <rect class="st0" x="32" y="0" width="6" height="50"/>
        <rect class="st0" x="40" y="0" width="2" height="50"/>
        <rect class="st0" x="48" y="0" width="2" height="50"/>
        <rect class="st0" x="52" y="0" width="6" height="50"/>
        <rect class="st0" x="60" y="0" width="2" height="50"/>
        <rect class="st0" x="64" y="0" width="2" height="50"/>
        <rect class="st0" x="68" y="0" width="2" height="50"/>
        <rect class="st0" x="76" y="0" width="2" height="50"/>
        <rect class="st0" x="80" y="0" width="6" height="50"/>
        <rect class="st0" x="88" y="0" width="6" height="50"/>
        <rect class="st0" x="96" y="0" width="2" height="50"/>
        <rect class="st0" x="100" y="0" width="6" height="50"/>
        <rect class="st0" x="112" y="0" width="2" height="50"/>
        <rect class="st0" x="116" y="0" width="2" height="50"/>
        <rect class="st0" x="120" y="0" width="6" height="50"/>
        <rect class="st0" x="128" y="0" width="2" height="50"/>
        <rect class="st0" x="136" y="0" width="2" height="50"/>
        <rect class="st0" x="140" y="0" width="6" height="50"/>
        <rect class="st0" x="148" y="0" width="6" height="50"/>
        <rect class="st0" x="156" y="0" width="2" height="50"/>
      </g>
    </g>
  </g>
</svg>