<?xml version="1.0" encoding="UTF-8"?>
<svg id="Calque_2" data-name="Calque 2" xmlns="http://www.w3.org/2000/svg" viewBox="0 0 84.92 19.38">
  <defs>
    <style>
      .cls-1 {
        fill: #1d1d1b;
      }
    </style>
  </defs>
  <g id="Calque_1-2" data-name="Calque 1">
    <g>
      <path class="cls-1" d="M0,13.98h3.64v-7.24H0v-1.5l5.29-.23.25.24v8.72h3.64v1.53H0v-1.53ZM4.22.09c.82,0,1.39.48,1.39,1.28s-.57,1.29-1.39,1.29-1.4-.49-1.4-1.29S3.39.09,4.22.09Z"/>
      <path class="cls-1" d="M10.8,13.99h2.76V1.72h-2.76V.22l4.41-.22.25.23v13.76s2.74,0,2.74,0v1.52h-7.4v-1.52Z"/>
      <path class="cls-1" d="M30.77,15.75c-1.51,0-2.53-.69-3.19-1.6h-.13v5.23h-1.89V5.25h1.6l.15,1.36h.26c.74-.91,1.79-1.6,3.28-1.6,2.6,0,4.03,2.09,4.03,5.36s-1.52,5.39-4.11,5.39ZM30.05,14.15c1.83,0,2.88-1.24,2.88-3.79s-.99-3.75-2.85-3.75c-.92,0-1.77.31-2.63,1.17v5.2c.84.86,1.7,1.17,2.6,1.17Z"/>
      <path class="cls-1" d="M38.25,5.25v6.84c0,1.68.87,2.11,1.91,2.11,1.2,0,2.16-.58,2.93-1.47v-7.48h1.89v10.26h-1.6l-.17-1.47h-.25c-.81.86-1.88,1.7-3.62,1.7-1.83,0-2.98-.93-2.98-3.15v-7.35h1.89Z"/>
      <path class="cls-1" d="M53.89,15.51v-6.85c0-1.67-.87-2.11-1.91-2.11-1.2,0-2.16.59-2.93,1.48v7.48h-1.89V5.25h1.6l.17,1.47h.25c.81-.87,1.88-1.71,3.62-1.71,1.83,0,2.98.93,2.98,3.16v7.35h-1.89Z"/>
      <path class="cls-1" d="M60.03,6.78h-2.98v-1.53h2.98v-3.22h1.9v3.22h4.72v1.53h-4.72v5.43c0,1.42.62,2.05,1.67,2.05s1.69-.69,1.69-2.05v-.5h1.43v.37c0,2.4-.97,3.67-3.35,3.67-2.22,0-3.34-1.09-3.34-3.66v-5.31Z"/>
      <path class="cls-1" d="M73.07,15.75c-2.75,0-5.01-1.76-5.01-5.36s2.26-5.39,5.01-5.39,5.01,1.8,5.01,5.39-2.25,5.36-5.01,5.36ZM73.07,14.2c1.8,0,3.06-1.19,3.06-3.81s-1.26-3.84-3.06-3.84-3.07,1.22-3.07,3.84,1.27,3.81,3.07,3.81Z"/>
      <path class="cls-1" d="M81.22,14.05c0-1.14.83-1.79,1.85-1.79s1.85.65,1.85,1.79-.82,1.81-1.85,1.81-1.85-.68-1.85-1.81Z"/>
    </g>
  </g>
</svg>